HIERARCHY
ROOT Hips
{
	OFFSET 0.000000 0.000000 0.000000
	CHANNELS 6 Xposition Yposition Zposition Zrotation Yrotation Xrotation 
	JOINT LHipJoint
	{
		OFFSET 0.000000 0.000000 0.000000
		CHANNELS 3 Zrotation Yrotation Xrotation
		JOINT LeftUpLeg
		{
			OFFSET 1.363060 -1.794630 0.839290
			CHANNELS 3 Zrotation Yrotation Xrotation
			JOINT LeftLeg
			{
				OFFSET 2.448110 -6.726130 0.000000
				CHANNELS 3 Zrotation Yrotation Xrotation
				JOINT LeftFoot
				{
					OFFSET 2.562200 -7.039590 0.000000
					CHANNELS 3 Zrotation Yrotation Xrotation
					JOINT LeftToeBase
					{
						OFFSET 0.157640 -0.433110 2.322550
						CHANNELS 3 Zrotation Yrotation Xrotation
						End Site
						{
							OFFSET 0.000000 0.000000 0.000000
						}
					}
				}
			}
		}
	}
	JOINT RHipJoint
	{
		OFFSET 0.000000 0.000000 0.000000
		CHANNELS 3 Zrotation Yrotation Xrotation
		JOINT RightUpLeg
		{
			OFFSET -1.305520 -1.794630 0.839290
			CHANNELS 3 Zrotation Yrotation Xrotation
			JOINT RightLeg
			{
				OFFSET -2.542530 -6.985550 0.000000
				CHANNELS 3 Zrotation Yrotation Xrotation
				JOINT RightFoot
				{
					OFFSET -2.568260 -7.056230 0.000000
					CHANNELS 3 Zrotation Yrotation Xrotation
					JOINT RightToeBase
					{
						OFFSET -0.164730 -0.452590 2.363150
						CHANNELS 3 Zrotation Yrotation Xrotation
						End Site
						{
							OFFSET 0.000000 0.000000 0.000000
						}
					}
				}
			}
		}
	}
	JOINT LowerBack
	{
		OFFSET 0.000000 0.000000 0.000000
		CHANNELS 3 Zrotation Yrotation Xrotation
		JOINT Spine
		{
			OFFSET 0.028270 2.035590 -0.193380
			CHANNELS 3 Zrotation Yrotation Xrotation
			JOINT Spine1
			{
				OFFSET 0.056720 2.048850 -0.042750
				CHANNELS 3 Zrotation Yrotation Xrotation
				JOINT Neck
				{
					OFFSET 0.000000 0.000000 0.000000
					CHANNELS 3 Zrotation Yrotation Xrotation
					JOINT Neck1
					{
						OFFSET -0.054170 1.746240 0.172020
						CHANNELS 3 Zrotation Yrotation Xrotation
						JOINT Head
						{
							OFFSET 0.104070 1.761360 -0.123970
							CHANNELS 3 Zrotation Yrotation Xrotation
							End Site
							{
								OFFSET 0.000000 0.000000 0.000000
							}
						}
					}
				}
				JOINT LeftShoulder
				{
					OFFSET 0.000000 0.000000 0.000000
					CHANNELS 3 Zrotation Yrotation Xrotation
					JOINT LeftArm
					{
						OFFSET 3.362410 1.200890 -0.311210
						CHANNELS 3 Zrotation Yrotation Xrotation
						JOINT LeftForeArm
						{
							OFFSET 4.983000 -0.000000 -0.000000
							CHANNELS 3 Zrotation Yrotation Xrotation
							JOINT LeftHand
							{
								OFFSET 3.483560 -0.000000 -0.000000
								CHANNELS 3 Zrotation Yrotation Xrotation
								JOINT LeftFingerBase
								{
									OFFSET 0.000000 0.000000 0.000000
									CHANNELS 3 Zrotation Yrotation Xrotation
									JOINT LeftHandIndex1
									{
										OFFSET 0.715260 -0.000000 -0.000000
										CHANNELS 3 Zrotation Yrotation Xrotation
										End Site
										{
											OFFSET 0.000000 0.000000 0.000000
										}
									}
								}
								JOINT LThumb
								{
									OFFSET 0.000000 0.000000 0.000000
									CHANNELS 3 Zrotation Yrotation Xrotation
									End Site
									{
										OFFSET 0.000000 0.000000 0.000000
									}
								}
							}
						}
					}
				}
				JOINT RightShoulder
				{
					OFFSET 0.000000 0.000000 0.000000
					CHANNELS 3 Zrotation Yrotation Xrotation
					JOINT RightArm
					{
						OFFSET -3.136600 1.374050 -0.404650
						CHANNELS 3 Zrotation Yrotation Xrotation
						JOINT RightForeArm
						{
							OFFSET -5.241900 -0.000000 -0.000000
							CHANNELS 3 Zrotation Yrotation Xrotation
							JOINT RightHand
							{
								OFFSET -3.444170 -0.000000 -0.000000
								CHANNELS 3 Zrotation Yrotation Xrotation
								JOINT RightFingerBase
								{
									OFFSET 0.000000 0.000000 0.000000
									CHANNELS 3 Zrotation Yrotation Xrotation
									JOINT RightHandIndex1
									{
										OFFSET -0.622530 -0.000000 -0.000000
										CHANNELS 3 Zrotation Yrotation Xrotation
										End Site
										{
											OFFSET 0.000000 0.000000 0.000000
										}
									}
								}
								JOINT RThumb
								{
									OFFSET 0.000000 0.000000 0.000000
									CHANNELS 3 Zrotation Yrotation Xrotation
									End Site
									{
										OFFSET 0.000000 0.000000 0.000000
									}
								}
							}
						}
					}
				}
			}
		}
	}
}
MOTION
Frames: 11
Frame Time: 0.008333
5.012080 17.886960 -26.997493 -5.795341 -5.036298 1.397409 -0.295149 4.272225 2.757185 -8.453195 -11.383129 -29.448599 2.196974 10.979495 33.508581 -0.241347 3.800786 15.442311 0.000000 0.000000 0.000000 1.909568 -4.958859 4.922975 28.371871 13.984521 -6.237306 -1.736257 -7.020611 27.838928 0.269272 -2.422720 -3.532176 -0.216300 -2.994400 8.263100 4.225081 0.695909 6.871434 5.420866 1.550407 4.169044 -0.546304 0.665868 -8.991081 -5.919021 -4.122669 -14.950596 3.361500 -4.551431 15.958225 -0.048300 -1.972600 8.170600 -7.160285 2.844878 -1.252309 -80.449995 4.985111 30.486800 12.850505 -21.771689 -2.565116 -0.464104 -0.639225 -7.767585 31.842426 14.194571 9.191200 -7.125000 0.000000 0.000000 4.661900 47.273600 0.262100 11.055369 -1.827206 -2.469507 71.869077 2.897791 22.770789 -13.149945 26.103254 -3.571141 1.012691 -0.218048 -0.760264 -18.481027 21.862927 -7.542800 7.125000 0.000000 0.000000 5.865000 -6.911500 5.144300
5.014925 17.883268 -26.899986 -5.900844 -5.077325 1.430736 -0.365720 4.258914 2.729190 -8.037325 -11.712942 -29.443934 1.847815 10.568447 32.055910 -0.233991 3.916727 15.625984 0.000000 0.000000 0.000000 1.933708 -4.959304 4.975858 28.476847 13.950959 -5.791635 -1.685048 -6.920292 27.567466 0.302479 -2.539654 -3.709869 -0.226735 -3.064595 8.458698 4.490612 0.771498 6.895783 5.153996 1.638670 4.970893 -0.772565 0.731790 -8.472673 -5.417456 -4.478634 -17.716082 3.275329 -4.837617 16.725278 -0.206041 -2.052380 8.850037 -7.193945 2.921160 -1.276103 -80.255261 3.523447 30.416632 12.595761 -21.390144 -2.461451 -0.437846 -0.664607 -7.598116 30.809636 15.827583 9.748024 -7.125000 0.000000 0.000000 3.463011 48.988847 0.308087 11.006833 -1.733165 -2.383452 72.164430 4.612302 22.378859 -13.144757 26.034184 -3.561706 1.009267 -0.207911 -0.721763 -18.723973 21.488931 -7.515438 7.125000 0.000000 0.000000 5.683902 -7.273575 4.944333
5.018280 17.880556 -26.801351 -5.989079 -5.124872 1.469309 -0.436460 4.239368 2.693067 -7.643435 -12.041055 -29.418428 1.506994 10.150700 30.611693 -0.227120 4.030162 15.805652 0.000000 0.000000 0.000000 1.961035 -4.965077 5.026829 28.546450 13.900363 -5.354759 -1.630334 -6.820243 27.285370 0.331088 -2.638767 -3.848957 -0.229638 -3.083981 8.512756 4.671133 0.832242 6.912616 4.994095 1.712455 5.455766 -0.922010 0.783189 -8.158531 -5.133052 -4.694655 -19.344518 3.257965 -5.015596 17.123094 -0.288967 -2.102542 9.233760 -7.214599 2.967613 -1.290404 -80.169532 2.667318 30.204477 12.374162 -21.051955 -2.370597 -0.410172 -0.689237 -7.441564 29.720256 17.401140 10.205388 -7.125000 0.000000 0.000000 2.161652 50.605423 0.274801 10.978435 -1.674729 -2.331120 72.311951 5.718684 22.184516 -13.168785 26.028721 -3.568770 1.006494 -0.200233 -0.720568 -18.878611 21.243207 -7.495011 7.125000 0.000000 0.000000 5.568399 -7.512845 4.815874
5.022578 17.879647 -26.700637 -6.045488 -5.184439 1.517551 -0.507509 4.208328 2.641965 -7.290060 -12.366036 -29.354509 1.181539 9.720607 29.183058 -0.221141 4.138978 15.977940 0.000000 0.000000 0.000000 1.994235 -4.980670 5.074275 28.550856 13.818372 -4.934092 -1.569157 -6.720691 26.983673 0.351224 -2.705035 -3.916890 -0.218656 -3.009722 8.305933 4.694970 0.865626 6.915596 5.031353 1.759556 5.356405 -0.929872 0.807822 -8.220880 -5.248903 -4.652737 -18.877215 3.367424 -4.994131 16.840356 -0.234000 -2.098113 9.072440 -7.211279 2.959090 -1.287208 -80.284717 2.927274 29.730622 12.213655 -20.793678 -2.303356 -0.379889 -0.712479 -7.308820 28.526574 18.865111 10.479432 -7.125000 0.000000 0.000000 0.671428 52.040134 0.095401 10.987151 -1.681915 -2.340942 72.186995 5.704202 22.354349 -13.246662 26.140497 -3.606241 1.004922 -0.197089 -0.788136 -18.870485 21.233906 -7.487367 7.125000 0.000000 0.000000 5.573799 -7.525768 4.819210
5.028195 17.876696 -26.596687 -6.103167 -5.290646 1.566739 -0.579655 4.182919 2.594403 -6.916830 -12.713827 -29.260852 0.873869 9.284325 27.771417 -0.215452 4.247112 16.145603 0.000000 0.000000 0.000000 2.024341 -4.997721 5.124445 28.543650 13.730896 -4.500907 -1.511923 -6.625429 26.696362 0.380630 -2.786565 -3.907438 -0.185526 -2.761294 7.615657 4.727506 0.906485 6.827463 5.058303 1.808344 5.335308 -0.939113 0.838682 -8.179194 -5.270890 -4.594364 -18.578390 3.379535 -4.944368 16.584564 -0.220815 -2.083911 8.946286 -7.211917 2.950198 -1.288884 -80.390113 3.182560 29.375079 12.125507 -20.648367 -2.263117 -0.352731 -0.741343 -7.284588 27.597090 20.508994 10.881168 -7.125000 0.000000 0.000000 -0.692640 53.689771 -0.184931 10.991287 -1.686137 -2.346372 72.076515 5.806069 22.526267 -13.299987 26.213182 -3.629616 1.004342 -0.201444 -0.884859 -18.842561 21.383981 -7.526924 7.125000 0.000000 0.000000 5.604079 -7.368662 4.863091
5.034275 17.872709 -26.491489 -6.159175 -5.410537 1.617559 -0.650024 4.161128 2.548278 -6.539801 -13.075239 -29.157139 0.578280 8.848386 26.377403 -0.250487 4.440072 16.011068 0.000221 -0.017617 -0.048405 2.052159 -5.015665 5.175257 28.531676 13.642494 -4.065847 -1.457130 -6.533284 26.418783 0.415851 -2.881274 -3.871490 -0.144644 -2.450556 6.752500 4.763952 0.950211 6.709674 5.076625 1.858406 5.342087 -0.951774 0.871683 -8.101942 -5.250395 -4.532431 -18.359862 3.350645 -4.886978 16.354910 -0.226155 -2.066888 8.840795 -7.213831 2.941813 -1.292561 -80.486181 3.440452 29.080368 12.070655 -20.556166 -2.236052 -0.329828 -0.769313 -7.295227 26.868771 22.048234 11.290964 -7.125000 0.000000 0.000000 -1.861289 55.248350 -0.472591 10.993444 -1.689051 -2.349549 71.976401 5.955093 22.693827 -13.343153 26.269742 -3.647320 1.004037 -0.208536 -0.994465 -18.803457 21.591542 -7.581838 7.125000 0.000000 0.000000 5.645961 -7.150729 4.923856
5.038754 17.865749 -26.388294 -6.177416 -5.428051 1.689505 -0.682056 4.160662 2.501230 -6.241048 -13.505264 -29.095904 0.361189 8.462990 25.162569 -0.980823 6.090610 10.734794 0.004225 -0.336920 -0.925746 2.063134 -5.038401 5.217375 28.521865 13.577851 -3.689089 -1.415676 -6.463560 26.203988 0.483720 -3.091497 -3.940474 -0.130932 -2.330127 6.419000 4.804544 0.989071 6.741802 5.021597 1.918112 5.261254 -1.013019 0.896385 -8.166672 -5.180043 -4.528340 -18.300129 3.322394 -4.903272 16.378342 -0.247086 -2.072105 8.835274 -7.209028 2.944783 -1.295341 -80.493164 3.776680 28.973258 12.063592 -20.557964 -2.239668 -0.357244 -0.741383 -7.119605 27.678071 20.496628 10.916937 -7.125000 0.000000 0.000000 -0.594146 53.695940 -0.157049 10.994778 -1.690975 -2.345870 71.949282 6.071726 22.771727 -13.389593 26.332348 -3.669676 1.001284 -0.208348 -1.114207 -18.715796 21.632955 -7.558966 7.125000 0.000000 0.000000 5.706873 -7.118635 4.981068
5.042789 17.859281 -26.285960 -6.199579 -5.439210 1.754136 -0.730645 4.154235 2.453405 -5.915594 -13.912322 -29.000939 0.129537 8.045419 23.865116 -1.443858 7.211063 7.803216 0.006279 -0.512599 -1.408454 2.080105 -5.058973 5.260231 28.518827 13.526217 -3.316134 -1.379990 -6.402126 26.016487 0.553080 -3.311625 -4.048592 -0.127737 -2.302321 6.342014 4.813386 1.021245 6.772914 5.004709 1.964000 5.194747 -1.032002 0.917842 -8.224536 -5.176481 -4.514885 -18.205401 3.327980 -4.896942 16.377744 -0.244515 -2.068411 8.818620 -7.206620 2.947194 -1.297640 -80.541264 4.068014 28.798758 12.037012 -20.528565 -2.234722 -0.384784 -0.717742 -6.807006 28.467900 19.223274 10.646592 -7.125000 0.000000 0.000000 0.550923 52.437419 0.090927 10.996864 -1.691125 -2.342408 71.889532 6.190470 22.845407 -13.421054 26.372938 -3.682869 1.002898 -0.207318 -1.111147 -18.813425 21.629817 -7.598031 7.125000 0.000000 0.000000 5.643687 -7.108981 4.926500
5.046179 17.853531 -26.184882 -6.227458 -5.441106 1.808107 -0.803370 4.139119 2.404450 -5.551220 -14.285904 -28.856809 -0.123340 7.580950 22.447234 -1.517268 7.558848 8.289330 0.005490 -0.478928 -1.315933 2.105815 -5.076392 5.304161 28.525660 13.493548 -2.948725 -1.352713 -6.352779 25.868771 0.624613 -3.546195 -4.213755 -0.139871 -2.409523 6.638931 4.775949 1.043673 6.802544 5.043418 1.989747 5.149123 -0.989385 0.934569 -8.272395 -5.270275 -4.487781 -18.059662 3.382888 -4.857633 16.342118 -0.207689 -2.051727 8.785737 -7.207703 2.948792 -1.299240 -80.649298 4.293908 28.526027 11.981987 -20.453693 -2.217295 -0.412503 -0.700351 -6.294745 29.229347 18.355508 10.527376 -7.125000 0.000000 0.000000 1.518054 51.607279 0.240416 11.000044 -1.688689 -2.339261 71.782216 6.312291 22.912934 -13.430681 26.381437 -3.682707 1.010880 -0.205058 -0.929090 -19.181136 21.561738 -7.727378 7.125000 0.000000 0.000000 5.399614 -7.132035 4.709000
5.050165 17.843878 -26.079947 -6.296037 -5.527411 1.888842 -0.866923 4.126861 2.362660 -5.149525 -14.585809 -28.741852 -0.366216 7.108844 21.020645 -1.592022 7.862687 8.421918 0.002953 -0.296135 -0.813696 2.123599 -5.089965 5.346147 28.576183 13.496881 -2.563187 -1.330597 -6.306898 25.744088 0.662413 -3.682724 -4.399666 -0.140729 -2.417772 6.661675 4.803338 1.110496 6.680553 5.036907 2.065471 5.254640 -1.003261 0.981827 -8.126441 -5.254969 -4.538799 -18.282291 3.425469 -4.913068 16.386415 -0.206486 -2.069608 8.837264 -7.215783 2.956569 -1.304831 -80.698660 4.239866 28.165060 11.892193 -20.322431 -2.181814 -0.419204 -0.712549 -5.448575 29.239977 19.283905 11.017717 -7.125000 0.000000 0.000000 1.350944 52.657264 0.240186 10.994867 -1.672799 -2.328421 71.738967 6.612146 22.916170 -13.447143 26.390752 -3.682684 1.019465 -0.210500 -0.802466 -19.541395 21.672212 -7.918031 7.125000 0.000000 0.000000 5.175516 -6.961324 4.528458
5.054402 17.833024 -25.973285 -6.367681 -5.648156 1.975016 -0.929109 4.117272 2.324269 -4.744065 -14.862300 -28.629964 -0.603428 6.632515 19.590664 -1.670596 8.163068 8.444035 0.000361 -0.063129 -0.173504 2.138357 -5.102782 5.387892 28.627754 13.512900 -2.170430 -1.309759 -6.262338 25.626469 0.684545 -3.772798 -4.586140 -0.137115 -2.386503 6.574971 4.854609 1.198154 6.514446 4.994486 2.165823 5.427092 -1.047198 1.043178 -7.907511 -5.169108 -4.629167 -18.713191 3.449206 -5.017414 16.486101 -0.229766 -2.105121 8.938886 -7.226662 2.968456 -1.312197 -80.706492 4.057667 27.817251 11.784068 -20.162167 -2.138516 -0.419584 -0.731711 -4.565071 29.028984 20.633014 11.630303 -7.125000 0.000000 0.000000 0.869458 54.138328 0.195223 10.985200 -1.650892 -2.313038 71.738124 7.003991 22.861089 -13.468733 26.403677 -3.685000 1.026518 -0.218673 -0.700965 -19.845075 21.838338 -8.104859 7.125000 0.000000 0.000000 4.993127 -6.737770 4.390022
